<svg width="1000" height="1000" viewBox="0 0 1000 1000" fill="none" xmlns="http://www.w3.org/2000/svg">
<rect width="1000" height="1000" fill="url(#paint0_linear_1463_2)"/>
<path d="M858.5 141.5V859.5H140.5V141.5H858.5Z" fill="#1C1C1C" stroke="#828282" stroke-width="25"/>
<path d="M756.493 634.238L757.407 637.264L759.649 639.49L833.5 712.831V834.5H165.5V624.165L303.435 514.104L432.888 611.331L442.509 618.558L450.096 609.219L667.872 341.16L756.493 634.238Z" fill="#19A90B" fill-opacity="0.4" stroke="#19A90B" stroke-width="25"/>
<path d="M747.66 746.428L753.036 753.504L761.485 750.751L833.5 727.285V834.5H165.5V725.931L301.364 758.626L305.953 759.73L310.127 757.525L449.688 683.804L636.018 599.496L747.66 746.428Z" fill="#FF0000" fill-opacity="0.4" stroke="#FF0000" stroke-width="25"/>
<defs>
<linearGradient id="paint0_linear_1463_2" x1="163.5" y1="-34" x2="500" y2="1316.5" gradientUnits="userSpaceOnUse">
<stop stop-color="#1A1A33"/>
<stop offset="1" stop-color="#4D4D66"/>
</linearGradient>
</defs>
</svg>
